<svg xmlns="http://www.w3.org/2000/svg" viewBox="0 0 490 490">
    <g fill="#93D92B" stroke-width="0">
        <path
            d="M319.92,230.14c81.9,4.79,63.18,68.89,63.18,68.89l-.41,1.22c-22.74,53.9-75.71,91.7-137.44,91.7-65.34,0-120.88-42.35-141.12-101.34l-.07-.23h41.36v-.02c17.94,37.03,55.56,62.58,99.12,62.96.24,0,.47,0,.71,0h2.88c43.19,1.23,72.11-25.7,84.27-39.84h0c7.32-7.81,21.31-28.76-5.88-43.04l-2.18-.82c-6.5-2.31-12.59-2.31-20.36-3.09l-9.37-.6c-20.94-.77-40.24-.6-61.19-1.37l-7.31-.39c-21.85-.82-49.46-4.35-68.61-8.44-29.25-6.36-49.73-20.19-52.47-38.88l-.11-1.05c-1.94-15.25,1.69-27.6,1.69-27.6l.42-1.39c22.17-55.17,75.53-93.43,138.16-93.43s120.88,42.35,141.12,101.34l.07.23h-41.36v.02c-17.94-37.03-55.56-62.58-99.12-62.96-.24,0-.47,0-.71,0h-2.88c-58.44-1.67-90.77,48.24-90.77,48.24l-.11.17c-3.48,5.39-6.64,12.44-6.05,19.78l-.07.14c2.09,11,8.45,14.28,22.02,18.17l.21.06c4.77,1.42,9.23,2.49,11.61,3,19.15,4.09,36.73,5,58.58,5.82l7.31.39c20.95.77,40.24.6,61.19,1.37l9.37.6c3.03.3,5.8.48,8.44.73"
        />
    </g>
    <g fill="#5B9ED9" stroke-width="0">
        <path 
            d="M264.8,487.17c117.9-10.04,211.94-103.76,222.48-221.52.42-4.67-3.24-8.7-7.93-8.7h-73.05c-3.95,0-7.31,2.9-7.85,6.8-9.57,69.48-65.32,124.22-135.28,132.25-4.01.46-7.03,3.88-7.03,7.91v75.33c0,4.67,4,8.31,8.65,7.92"
        />
        <path 
            d="M.29,265.67c10.52,117.45,104.1,210.98,221.57,221.42,4.66.42,8.69-3.24,8.69-7.92v-75.78c0-3.95-2.9-7.32-6.81-7.87-68.15-9.55-122.05-63.54-131.46-131.73-.54-3.93-3.92-6.84-7.88-6.84H8.24c-4.7,0-8.37,4.04-7.95,8.72"
        />
        <path 
            d="M91.66,226.2c7.39-70.57,62.27-127.01,132.1-136.77,3.9-.54,6.78-3.91,6.78-7.84V7.94c0-4.65-4-8.29-8.64-7.88C103.35,10.58,9.12,105.72.02,224.67c-.35,4.63,3.29,8.6,7.93,8.6h75.82c4.05,0,7.46-3.05,7.88-7.07"
        />
        <path 
            d="M487.42,224.73C478.31,105.49,383.65,10.17,264.7.03c-4.66-.4-8.68,3.26-8.68,7.94v73.12c0,4.02,3,7.43,6.99,7.89,71.64,8.21,128.39,65.4,135.92,137.24.42,4.04,3.85,7.09,7.91,7.09h72.66c4.64,0,8.27-3.96,7.91-8.58"
        />
    </g>
</svg>