<?xml version="1.0" encoding="UTF-8"?><svg id="a" xmlns="http://www.w3.org/2000/svg" viewBox="0 0 479 483.89188"><path d="M154.12599,11.88784C53.92674,46.90381,0,155.37805,0,222.43333c0,67.05039,36.85377,234.01164,163.57893,257.732,126.72027,23.70567,298.38846-69.70935,311.56099-166.16453,13.17253-96.45033-8.07459-188.82425-52.95408-238.62083C377.30636,25.58337,254.32523-23.12813,154.12599,11.88784Z" fill="#3b8fd9" fill-rule="evenodd" stroke-width="0"/><path d="M324.90797,373.57188c-7.97607,0-15.01996-5.17075-17.4381-12.77143-1.91125-6.00743-3.90071-12.1072-5.97086-18.29803-2.15212-6.43597-4.29964-12.85754-6.44118-19.26177-2.49482-7.4607-9.47977-12.48828-17.34654-12.48828l-81.9873.00003c-7.88704,0-14.88531,5.05425-17.36437,12.54156-2.12604,6.42112-4.25487,12.85133-6.38369,19.29353-2.04303,6.1716-4.00397,12.23973-5.88283,18.20182-2.39885,7.6122-9.45946,12.78257-17.44069,12.78257l-25.92963-.00002c-12.51859,0-21.33937-12.29775-17.32652-24.15575,7.48984-22.13257,14.68813-42.97758,21.59739-62.5351,9.37183-26.5216,18.5372-51.51197,27.50864-74.96458s17.80523-45.71426,26.50764-66.79805c7.16724-17.35904,14.56363-34.38963,22.18568-51.08809,2.97292-6.5131,9.48014-10.6844,16.63966-10.6844h35.6709c7.21496,0,13.75569,4.23631,16.7012,10.82263,7.44803,16.65422,14.80744,33.63872,22.07822,50.94987,8.84631,21.08379,17.76769,43.34544,26.75163,66.79805,8.98394,23.45261,18.16809,48.44298,27.55243,74.96458,6.9175,19.55473,14.12734,40.39659,21.62954,62.52563,4.02072,11.8598-4.80049,24.16522-17.32331,24.16523l-27.98791.00002ZM242.87856,165.92643c-2.15293-5.76904-10.31437-5.75837-12.45006.01708-.04383.11853-.08783.23747-.13201.35681-2.68392,7.25696-5.73696,15.63943-9.16537,25.14742-3.42841,9.50799-7.26348,19.9779-11.49895,31.40974-2.84197,7.67069-5.71492,15.5918-8.61886,23.76334-2.11455,5.95025,2.30581,12.2008,8.62062,12.20079l53.67693-.00005c6.26523,0,10.67735-6.15934,8.65885-12.09051-2.80768-8.25009-5.55354-16.24567-8.23954-23.98482-3.97896-11.46455-7.76398-21.9541-11.34254-31.46863-3.58482-9.50799-6.72545-17.88392-9.42814-25.13434l-.08092-.21685Z" fill="#bacbd9" stroke-width="0"/></svg>