<?xml version="1.0" encoding="UTF-8"?><svg id="a" xmlns="http://www.w3.org/2000/svg" viewBox="0 0 447.72571 476.00001"><path d="M366.7087,476.00001c-10.5538-7.72947-18.04644-13.21698-28.60024-20.94645-3.13465-9.85279-6.39757-19.85704-9.79281-30.01062-4.67834-13.99072-9.34346-27.93994-13.99001-41.83649l-14.2235-10.2368-156.10316.00004c-5.24345,3.78682-8.99524,6.49637-14.23869,10.28319-4.61812,13.94934-9.24686,27.92217-13.8756,41.92957-3.35078,10.12205-6.56692,20.07439-9.64843,29.85283-10.55797,7.73811-18.04653,13.22661-28.6045,20.96472H14.21587c-5.98312-8.32871-8.23275-11.46026-14.21587-19.78897,14.70118-43.73884,28.73532-84.53645,42.10918-122.39285,15.37075-43.49811,30.40289-84.48485,45.11695-122.94949,14.71406-38.46465,29.20237-74.97601,43.47521-109.55556,11.75499-28.47058,23.88582-56.40246,36.38676-83.78963L194.37882,0h58.50389c9.93053,6.43513,17.46114,11.31509,27.39167,17.75022,12.21552,27.3146,24.28569,55.1709,36.21051,83.56292,14.50884,34.57955,29.14081,71.09091,43.87538,109.55556,14.73458,38.46465,29.7975,79.45139,45.18877,122.94949,13.39092,37.85415,27.44981,78.64916,42.17667,122.38506-5.98285,8.33315-8.23039,11.4636-14.21324,19.79675h-66.80377ZM232.17217,135.44044l-20.41936.02802c-.07189.1944-.14406.38947-.21652.58521-4.4019,11.90215-9.4092,25.65025-15.03214,41.24432s-11.91284,32.76578-18.85944,51.51515c-4.66112,12.5807-9.37305,25.57213-14.13581,38.97428,5.9765,8.45857,8.16218,11.55197,14.13868,20.01054l88.0356-.00007c5.983-8.35417,8.2184-11.4755,14.20139-19.82966-4.60487-13.53098-9.10837-26.64455-13.51368-39.33753-6.5259-18.80303-12.73371-36.00694-18.60292-51.61174-5.87947-15.59407-11.03041-29.33144-15.4631-41.22285l-.13272-.35565Z" fill="#000" stroke-width="0"/></svg>