<?xml version="1.0" encoding="UTF-8"?><svg id="a" xmlns="http://www.w3.org/2000/svg" viewBox="0 0 474.06993 475.65527"><path d="M109.92985,268.17586l43.20589,77.32414,11.70892-26.50077,60.30094-135.83155c1.43909-4.61134,6.22286-7.1439,10.68486-5.65664,2.59853.86614,4.63539,2.97112,5.47346,5.65664l60.30094,135.83155,9.30852,21.11592,40.98121-73.69391c2.59027-4.62805,8.32029-6.20975,12.7985-3.53281,1.41895.84821,2.59768,2.06637,3.41838,3.53281l33.429,59.77799c36.68416-93.48644-6.90884-200.00584-97.36771-237.91777-90.45887-37.91193-193.52859,7.14011-230.21271,100.62654-15.42066,39.29817-17.13029,82.9169-4.83576,123.3753l24.64726-44.10744c2.61801-4.61134,8.35745-6.15623,12.81945-3.45062,1.37982.83669,2.5293,2.02462,3.33887,3.45062Z" fill="#1f5aa6" stroke="#bacbd9" stroke-miterlimit="10" stroke-width="3"/><path d="M456.22107,200.95588c-16.68524-78.65524-64.69178-131.65677-135.58927-163.36088l-2.51742,3.26722c-6.79687,9.87298-18.88241,14.23843-30.15047,10.89073-11.18128-2.40362-19.52524-12.08326-20.54916-23.83859-.52688-3.69075-2.28324-4.35629-5.38609-4.71931C177.5703,14.25004,95.28384,54.47475,48.39948,127.62499c-1.87342,2.90419-2.28324,4.65881.35125,7.62351,10.36295,11.2115,9.96944,28.98223-.87898,39.69205-2.00782,1.98221-4.29789,3.63455-6.79034,4.89942-6.16243,2.22794-12.54305,3.74966-19.02699,4.5378-10.22587,33.47656-12.94862,68.91865-7.96207,103.64341h445.34868c4.22638-28.97324,3.13403-58.50999-3.21997-87.06529Z" fill="none" stroke-width="0"/><path d="M22.05442,184.37778c6.48394-.78814,12.86456-2.30986,19.02699-4.5378,13.46666-6.83408,19.02284-23.65645,12.41008-37.57383-1.22394-2.57587-2.82276-4.94259-4.74076-7.01765-2.63449-2.9647-2.22468-4.71932-.35125-7.62351C95.38581,54.63579,177.65311,14.58354,262.02865,23.61858c3.10286.36302,4.85921,1.02857,5.38609,4.71932,1.02392,11.75532,9.36788,21.43496,20.54916,23.83858,11.26806,3.3477,23.3536-1.01775,30.15047-10.89073l2.51742-3.26722c70.89749,31.5226,118.90403,84.34261,135.58927,163.36088,6.34391,28.47357,7.45609,57.92534,3.27848,86.82327h10.12819c7.24964-45.78816,1.02901-92.7711-17.85612-134.86348-26.11092-60.50403-70.60475-101.76777-130.08607-125.72737-2.36341-.52217-4.03445-2.70623-3.98103-5.20335-.68817-9.50633-7.12605-17.51949-16.0412-19.96633-8.55572-2.62175-17.79729.33901-23.41783,7.5025-1.9059,3.35256-5.70889,5.02292-9.36712,4.11427C176.52271,1.68572,85.67239,46.13675,36.39783,127.80649c-1.45821,2.97067-4.60243,4.63205-7.78644,4.11428-9.35725-.46925-17.98658,5.20153-21.54441,14.15794-3.49252,8.43273-1.60838,18.21694,4.74214,24.62516,2.06276,1.79973,2.66732,4.82378,1.46361,7.32098C1.80863,213.33398-1.34237,250.9595,4.08124,287.77915h10.01112c-4.95055-34.64575-2.22816-70.00083,7.96207-103.40137Z" fill="#123c73" stroke="#bacbd9" stroke-miterlimit="10" stroke-width="3"/><path d="M158.38265,471.44531c0,.58594-.58767.87891-1.76302.87891-.93097,0-2.28997-.07324-4.07699-.21973-1.78849-.14648-3.14748-.21973-4.07699-.21973-.93097,0-2.3267.07324-4.18718.21973-1.86195.14648-3.25767.21973-4.18718.21973-1.37173,0-3.12202-3.69922-5.25233-11.0957-2.13032-7.39844-4.29736-11.14453-6.50114-11.24316-1.81248-.09766-6.53787-.14648-14.17763-.14648h-11.60656c-8.08051,0-12.68445.04883-13.81033.14648-1.76302.14648-3.63623,3.90723-5.61963,11.2793-1.9834,7.37305-3.51478,11.05957-4.5912,11.05957h-16.52833c-.98044,0-1.46918-.34082-1.46918-1.02539,0-.4873.34183-1.58594,1.02843-3.2959l17.99751-49.07227c1.51718-3.95508,6.12111-15.35547,13.81033-34.2041,1.37026-3.12402,3.23221-7.83691,5.5829-14.13574.58767-1.85547,1.22334-2.7832,1.90994-2.7832.9295,0,2.30123.12207,4.11372.36621,1.81101.24512,3.18274.36621,4.11372.36621.88151,0,2.21504-.13379,4.00353-.40332,1.78702-.26758,3.09655-.40234,3.93007-.40234.44076,0,1.05243.9043,1.83648,2.70996,1.17535,2.73535,6.97863,17.45703,17.40984,44.16504,14.73984,37.54883,22.11123,56.49512,22.11123,56.83594ZM124.15065,431.01563c0-1.41602-2.20378-7.76367-6.61133-19.04297-4.26063-10.9375-7.27246-18.11523-9.03548-21.5332-10.13737,25.78125-15.20606,39.2832-15.20606,40.50293,0,1.66016,1.86048,2.63672,5.5829,2.92969.19491.04883,2.59507.07324,7.199.07324h7.5663c7.00262,0,10.50467-.97656,10.50467-2.92969Z" fill="#3b8fd9" stroke="#bacbd9" stroke-miterlimit="10" stroke-width="3"/><path d="M208.5553,403.5498c0,5.37207-.3673,10.25391-1.10189,14.64844-.14692,1.12402-.63714,1.68457-1.46918,1.68457-1.02843,0-2.58381-.10938-4.66466-.33008-2.08232-.21875-3.6617-.3291-4.73812-.3291-6.17057,0-10.11338,1.7334-11.82694,5.2002-1.02843,2.09961-1.54264,6.4707-1.54264,13.11035v8.05664c0,2.73535.11019,6.88477.33057,12.45117s.33057,9.7168.33057,12.45117c0,1.31836-.56368,1.97754-1.68956,1.97754-1.51865,0-3.81988-.02539-6.90517-.07324-3.08529-.04883-5.38799-.07324-6.90517-.07324-1.12735,0-1.68956-.61035-1.68956-1.83105,0-3.95508.06073-9.91211.18365-17.87109.12145-7.95801.18365-13.94043.18365-17.94434,0-12.05957-1.12735-21.75293-3.37912-29.07715-.09893-.39062-.14692-.68359-.14692-.87891,0-.58594.31783-1,.95497-1.24512,1.81101-.19434,4.35809-.4873,7.63976-.87891,5.28906-.97656,7.73722-1.46484,7.34592-1.46484.78259,0,1.2968,1.44043,1.54264,4.32129.24437,2.88184.68513,4.32129,1.32227,4.32129.09746,0,.22038-.04785.3673-.14648,2.0074-1.26953,4.01479-2.53809,6.02366-3.80859,2.20378-1.31836,4.45555-2.29492,6.75825-2.92969,1.90994-.58594,4.35809-.87891,7.34592-.87891,3.81988,0,5.72982.5127,5.72982,1.53809Z" fill="#3b8fd9" stroke="#bacbd9" stroke-miterlimit="10" stroke-width="3"/><path d="M289.50736,436.94824c0,9.66797-3.01183,18.09082-9.03548,25.26855-6.41642,7.61719-14.39801,11.42578-23.94771,11.42578-6.36647,0-11.97385-1.61133-16.82216-4.83398-1.9594-1.65918-3.9188-3.2959-5.87674-4.90723-.53968.14648-.89424,1.61133-1.06516,4.39453-.17238,2.7832-.57641,4.1748-1.21208,4.1748h-15.4999c-.58767,0-.88151-.31738-.88151-.95215,0,.04883.04799-.39062.14692-1.31836.78259-7.81152,1.17535-22.75293,1.17535-44.82422,0-9.0332-.39276-22.29004-1.17535-39.77051-.49022-11.13281-.73459-16.01465-.73459-14.64844,0-1.26953.63567-1.97754,1.90994-2.12402,1.76302-.04785,4.38209-.14648,7.86014-.29297.68513-.04785,2.08085-.21973,4.18718-.5127,1.76302-.29297,3.18274-.43945,4.26063-.43945.78259,0,1.17535.56152,1.17535,1.68457,0,1.66016-.12292,4.2002-.3673,7.61719-.24584,3.41797-.3673,5.98145-.3673,7.69043,0,2.53906-.11019,6.36035-.33057,11.46289s-.33057,8.92383-.33057,11.46191c0,1.85645.34183,2.7832,1.02843,2.7832.34183,0,.70913-.26758,1.10189-.80566,5.38701-6.68945,12.51255-10.03418,21.37663-10.03418,10.13737,0,18.33934,3.78418,24.60884,11.35254,5.87674,7.12988,8.81511,15.8457,8.81511,26.14746ZM272.90558,436.28906c0-5.81055-1.83648-10.9375-5.50944-15.38086-3.9188-4.73535-8.74165-7.10449-14.47147-7.10449-5.87674,0-10.77402,2.31934-14.69184,6.95801-3.77189,4.39453-5.65636,9.57031-5.65636,15.52734,0,6.05469,1.88447,11.2793,5.65636,15.67383,3.91783,4.58984,8.8631,6.88477,14.83876,6.88477,5.77781,0,10.60261-2.36816,14.47147-7.10449,3.57404-4.39453,5.36252-9.5459,5.36252-15.4541Z" fill="#3b8fd9" stroke="#bacbd9" stroke-miterlimit="10" stroke-width="3"/><path d="M362.232,432.99316c0,3.61426-1.56811,6.03125-4.70139,7.25098-2.10583.78125-17.26292,2.22266-45.47126,4.32129.63567,4.29688,3.01183,7.95898,7.12554,10.98633,3.91783,2.88184,8.12851,4.32129,12.63499,4.32129,7.7377,0,14.83876-2.49023,21.30317-7.4707.78259-.63379,1.56713-1.26953,2.3507-1.9043.39178,0,.6484.04883.77083.14648.12243.09863,1.04018,1.79492,2.75521,5.08984,1.71405,3.29688,2.57107,5.06641,2.57107,5.31055,0,.29297-.39276.85449-1.17535,1.68457-7.199,7.61719-16.43038,11.42578-27.69413,11.42578-11.36169,0-20.42166-3.38086-27.17991-10.14355s-10.13737-15.78418-10.13737-27.06348c0-10.05859,3.23221-18.82324,9.69662-26.29395,6.80624-7.76367,15.15709-11.64551,25.0496-11.64551,9.20689,0,16.89562,3.36914,23.0662,10.10742,6.02366,6.54395,9.03548,14.50195,9.03548,23.87695ZM344.7487,428.52539c0-4.05273-1.60435-7.6416-4.81207-10.7666-3.20772-3.12402-6.81995-4.6875-10.83475-4.6875-4.50648,0-8.50952,1.80664-12.01009,5.41992-3.50254,3.61426-5.25282,7.66602-5.25282,12.1582,0,1.02539.88151,1.53809,2.64453,1.53809,7.247,0,15.91519-.73242,26.00457-2.19727,2.83944-.39062,4.26063-.87891,4.26063-1.46484Z" fill="#3b8fd9" stroke="#bacbd9" stroke-miterlimit="10" stroke-width="3"/><path d="M414.53496,403.5498c0,5.37207-.3673,10.25391-1.10189,14.64844-.14692,1.12402-.63665,1.68457-1.46918,1.68457-1.02843,0-2.58381-.10938-4.66515-.33008-2.08134-.21875-3.66121-.3291-4.73763-.3291-6.17057,0-10.11289,1.7334-11.82694,5.2002-1.02843,2.09961-1.54264,6.4707-1.54264,13.11035v8.05664c0,2.73535.11068,6.88477.33008,12.45117.22136,5.56641.33106,9.7168.33106,12.45117,0,1.31836-.56319,1.97754-1.68956,1.97754-1.51816,0-3.81988-.02539-6.90517-.07324-3.08529-.04883-5.38799-.07324-6.90517-.07324-1.12735,0-1.68956-.61035-1.68956-1.83105,0-3.95508.06073-9.91211.18414-17.87109.12145-7.95801.18316-13.94043.18316-17.94434,0-12.05957-1.12735-21.75293-3.37912-29.07715-.09893-.39062-.14692-.68359-.14692-.87891,0-.58594.31832-1,.95497-1.24512,1.81101-.19434,4.35858-.4873,7.63976-.87891,5.28906-.97656,7.7377-1.46484,7.34592-1.46484.78259,0,1.2968,1.44043,1.54264,4.32129.24486,2.88184.68562,4.32129,1.32227,4.32129.09795,0,.22038-.04785.3673-.14648,2.00789-1.26953,4.01479-2.53809,6.02366-3.80859,2.20378-1.31836,4.45555-2.29492,6.75825-2.92969,1.90994-.58594,4.35858-.87891,7.34592-.87891,3.81988,0,5.72982.5127,5.72982,1.53809Z" fill="#3b8fd9" stroke="#bacbd9" stroke-miterlimit="10" stroke-width="3"/></svg>