<svg xmlns="http://www.w3.org/2000/svg" viewBox="0 0 243 243">
    <path 
        d="M198.63505,161.75376l37.87925-27.40759c2.77164-2.10827,4.61942-4.56793,4.61942-9.48725v-35.13794c0,2.81103-2.77164,7.02759-4.61942,8.4331l-37.87925,27.4076v36.19207ZM0,197.59446c0,5.62206,2.30971,8.43311,5.08136,10.54138l36.49342,26.00207c7.71002,5.61657,17.96497,8.76194,28.6404,8.78448,10.83505.06844,21.27714-3.0835,29.10235-8.78448l38.80312-28.11035,1.84777-1.40552v-38.30033l-1.84777,1.40552-41.57478,30.57001c-7.08669,5.12511-16.55491,7.90486-26.33069,7.73035-9.45734-.00899-18.55025-2.77562-25.40681-7.73035l-38.80312-28.11035c-3.69554-2.81105-6.00525-5.2707-6.00525-7.0276v34.43518Z" 
        fill="#a159ff" 
        fill-rule="evenodd" 
        stroke-width="0"
    />
    <path
        d="M148.28337,126.26445l50.35168,35.48931v-36.19207l-24.94487-18.27173-25.86874,18.97449h.46193Z" 
        fill="#5d3491" 
        stroke-width="0"
    />
    <path 
        d="M236.51429,98.85686c2.77164-2.10828,4.61942-4.56793,4.61942-9.48725v-35.13794c0,2.45966-2.77164,7.02759-4.61942,8.4331l-37.87925,27.4076v36.19207l37.87925-27.40759ZM139.50648,130.83239c-.58056.49465-1.19746.96391-1.84777,1.40552l-41.57478,30.57001c-7.08669,5.12511-16.55491,7.90486-26.33069,7.73035-9.45734-.00899-18.55025-2.77562-25.40681-7.73035l-38.80312-28.11035C2.81878,132.82594.88896,130.37938,0,127.66999v34.43518C0,167.37586,1.84778,170.18689,4.61943,172.29517l36.95536,26.35345c7.54777,5.32408,17.42377,8.32896,27.71651,8.43308,10.77079.16321,21.20434-2.86017,29.10234-8.43311l38.80312-28.11035,1.84777-1.40552v-38.30034h.46195Z"
        fill="#b882ff" 
        fill-rule="evenodd" 
        stroke-width="0"
    />
    <path 
        d="M173.69018,107.99272l24.94487,18.27173v-36.19207s-24.94487,17.92035-24.94487,17.92034Z" 
        fill="#5e3e87" 
        stroke-width="0"
    />
    <path 
        d="M236.51429,63.01616l-9.23884,6.32483-128.41987,93.11553c-7.82521,5.701-18.26729,8.85291-29.10235,8.78448-10.51537-.11187-20.58432-3.25081-28.17847-8.78448l-36.49342-25.65069c-2.77165-2.45966-5.08136-5.27069-5.08136-10.54138v-35.13794c.46194,2.10828,2.77165,5.62207,4.61942,7.02759l39.72701,28.81311c6.85656,4.95473,15.94947,7.72135,25.40681,7.73035,9.61681.08183,18.89673-2.69129,25.86875-7.73035l109.94219-79.76312,30.02623-22.48828c2.30971-1.40552,5.08135-4.91931,6.00524-7.37897l-.46193,35.8407c0,4.91931-2.30971,7.73035-5.08135,9.83862h.46193Z" 
        fill="#dcc2ff" 
        stroke-width="0"
    />
    <path 
        d="M69.75324,135.04894c-10.51537-.11187-20.58431-3.25081-28.17846-8.78448L6.92913,101.6679c-8.41908-5.93714-8.91666-15.94164-1.11138-22.34566.35632-.29235.72704-.57434,1.11138-.84538,8.98116-6.69629,23.35478-6.69629,32.33594,0l30.95011,22.48828L204.17836,4.68719c8.85897-6.24958,22.55308-6.24958,31.41205,0,8.29152,6.04011,8.57595,16.04943.63528,22.35642-.20716.16454-.41897.32566-.63528.48323L98.85558,126.26445c-7.82521,5.701-18.26729,8.85291-29.10234,8.78448Z"
        fill="#f8f8f8" 
        stroke-width="0"
    />
</svg>