<svg xmlns="http://www.w3.org/2000/svg" viewBox="0 0 484 484">
    <path 
        d="M326.79583,481.93515c-11.37923,0-22.75849.00288-34.13772-.00109-6.96292-.00243-8.79136-.91072-11.0903-6.45994-4.01423-9.68964-5.45791-19.72295-5.13739-29.95178.24904-7.94744-1.58181-15.59798-4.85025-23.03234-1.08203-2.46112-2.78833-4.55901-5.18827-6.28562-5.26858-3.79049-7.75512-3.53703-12.30911.79672-10.91172,10.38404-24.2969,17.76741-39.70113,22.81353-25.7713,8.44225-52.77262,10.66565-80.08897,11.48988-4.55209.13733-9.03356.71614-13.52992,1.34034-3.7046.51422-3.57562,2.45834-3.62703,4.7442-.0576,2.56156,1.34429,3.84962,4.27589,3.90324,2.75383.05049,5.55618.10858,8.26315-.23842,10.89627-1.39669,15.91596,1.85605,16.84036,11.11781q.98483,9.86729-10.8807,9.86763c-11.37923.00015-22.75858-.02065-34.13763.01743-2.21097.0074-4.40756.04826-5.08222-2.16357-2.94557-9.65672-10.67985-17.58127-13.98697-27.13611-1.17711-3.40084-2.44638-6.80843-2.61392-10.27302-.23636-4.88834,1.4299-9.28917,6.83724-12.26039,10.16954-5.58815,20.37007-11.10152,31.53184-15.26185,9.08431-3.38599,17.72293-7.33377,24.46351-13.67068,3.98017-3.74183,5.76042-8.43296,8.30566-12.80246,1.0296-1.76757-.20695-2.80361-1.45628-3.88959-14.90359-12.95449-22.88828-28.45957-28.21375-45.88407-7.13331-23.33972-5.55826-46.77017-5.15606-70.21931.19778-11.53086,3.09608-23.03224,5.47071-34.50387,3.22215-15.5658,6.09582-31.18473,9.88592-46.66787.62868-2.56839-.52705-3.59946-3.32991-3.72038-9.27724-.40022-18.68169-.54249-27.56989,1.68034-7.72443,1.93176-12.98246,6.85711-16.51365,12.9958-5.84158,10.15505-9.45365,20.96891-13.70421,31.59615-.25626.64075-.56996,1.26705-.79192,1.91555-6.56538,19.18279-24.00593,25.24214-44.57182,27.20354-4.76554.45449-9.71986.82992-14.48101-.60312-8.8584-2.66623-10.72026-9.94273-3.86796-15.3114,4.87744-3.82137,10.02156-7.20513,16.55407-9.04452,16.72795-4.71012,17.11013-9.38308,18.36309-22.12564,1.4836-15.08817,2.54183-30.20664,5.50853-45.16818,2.06013-10.3896,8.74695-18.54494,17.96451-25.33649,11.86038-8.73878,26.42063-13.4538,40.65518-18.71691,16.231-6.00128,33.43042-8.41056,50.75467-10.55483,3.16466-.3917,4.9375-1.78292,6.51091-4.16724,10.03777-15.21092,16.25279-31.79996,24.82353-47.54275,5.3848-9.89082,11.55254-19.3619,17.97299-28.7527,1.89605-2.77318,2.25282-5.11926.20269-7.9209-2.54506-3.478-3.22998-7.37969-2.09562-11.36275,1.81511-6.37323,7.35646-9.93809,15.07657-9.88696,7.52843.04985,14.48317,4.52482,16.08194,10.34779q1.51022,5.50031,8.34427,4.70894c.64348-.07457,1.31145-.3024,1.92317-.22193,7.31871.96283,12.56542-.30224,16.03982-6.78754,2.50267-4.67154,11.54471-5.48506,18.44914-3.05976,5.00975,1.75975,8.56616,7.10065,7.97079,12.00818-.11351.93551-.88127,2.2058-.40625,2.74195,6.21912,7.02019,8.26431,16.92382,19.83989,20.26513,4.90666,1.4163,9.92382,2.50618,15.04573,3.2414,3.76387.54029,5.64834,2.32882,5.55921,5.5822-.25934,9.46501-2.28738,18.55834-8.04995,26.86472-4.69078,6.76145-12.83027,9.21937-21.02364,11.58572-.15215.04391-.32525.03785-.47653.0831-4.63252,1.38592-11.01695.40293-11.42948,7.0274-.54962,8.82641,2.46266,14.90779,9.90119,17.95619,8.28449,3.39507,17.12343,2.58805,25.84239,2.07032,3.83925-.22799,7.62071-1.06595,11.40019-1.92425,14.63912-3.32449,21.86121-12.22165,26.43389-23.39319,3.9254-9.59017,8.17158-19.08898,12.10454-28.67711,3.82925-9.33538,11.66087-15.01341,22.66624-18.0697,7.71833-2.14343,15.66956-3.6072,23.64175-4.57509,5.67734-.68927,11.33199,1.05925,15.41534,4.75027,4.44147,4.01472,1.75099,11.48941-5.37215,15.17219-7.33443,3.79202-15.39896,6.38034-23.25786,9.26978-2.86558,1.05356-4.40038,2.289-4.93241,4.87379-1.67573,8.14275-2.95191,16.31978-3.48619,24.56643-.85912,13.26193-3.09021,26.35997-6.8857,39.24851-2.43453,8.26728-7.93689,14.8689-15.9167,20.31403-20.7701,14.17269-44.75896,22.03319-70.882,25.88457-11.34553,1.67274-11.58722,1.99444-8.54774,11.13613,3.9546,11.894,4.92172,24.2308,7.33122,36.35073,2.41,12.12234,4.31123,24.32988,5.50792,36.6097,1.03175,10.58733.3432,21.09194-.81194,31.6066-1.13999,10.37704-3.61973,20.5702-6.50919,30.69169-.58498,2.04921.48886,2.94151,2.45212,3.77187,6.67178,2.82183,12.89335,6.17736,18.81925,10.05002,15.33213,10.01976,21.29218,23.24653,19.37679,38.97836-1.85467,15.23256-8.65862,29.24666-16.52877,42.96466-4.33132,7.5497-8.37556,15.28245-9.49878,23.74714-.92574,6.97649,3.59137,11.5006,11.95355,12.73405,5.08372.74991,10.00044.30788,14.98343-.39203,4.96822-.69792,9.98231-1.19457,15.02117-.6444,6.37047.69554,9.84094,3.67778,10.62856,8.94316,1.63614,10.93758,1.53653,11.03251-11.60479,11.03305-9.75363.0004-19.50729.00005-29.26092-.00015Z" 
        fill="#438ecc"
        fill-rule="evenodd" 
        stroke="#b9cbd9" 
        stroke-miterlimit="10" 
        stroke-width="3"
    />
</svg>