<?xml version="1.0" encoding="UTF-8"?>
<svg id="Layer_1" data-name="Layer 1" xmlns="http://www.w3.org/2000/svg" viewBox="0 0 495 495">
  <defs>
    <style>
      .cls-1 {
        fill: #a3d49e;
      }

      .cls-2 {
        fill: #fff;
      }
    </style>
  </defs>
  <path class="cls-1" d="M495,247.5c0,136.58-110.78,247.5-247.5,247.5S0,384.08,0,247.5,110.78,0,247.5,0s247.5,110.92,247.5,247.5Z"/>
  <path class="cls-2" d="M159.72,136.02c-48,34.95-87.22,63.78-87.22,64.14,0,.31,28.82,21.64,64.1,47.44l64.03,46.82-63.53,46.82c-34.93,25.75-63.53,47.13-63.53,47.54,0,.93,43.64,33.72,44.84,33.72.49,0,29.73-21.12,64.94-46.87l64.17-46.92,64.17,46.92c35.21,25.75,64.45,46.87,64.94,46.87,1.19,0,44.84-32.79,44.84-33.66,0-.46-28.6-21.84-63.53-47.59l-63.53-46.82,64.03-46.82c35.28-25.8,64.1-47.13,64.1-47.49,0-.62-174.16-127.61-175-127.61-.35,0-39.78,28.58-87.78,63.52ZM288.83,170.3l40.9,29.91-41.11,30.07-41.11,30.07-41.11-30.07-41.11-30.07,40.9-29.91c22.56-16.5,41.11-29.96,41.33-29.96s18.77,13.47,41.33,29.96Z"/>
</svg>