<?xml version="1.0" encoding="UTF-8"?>
<svg id="a" data-name="Layer 1" xmlns="http://www.w3.org/2000/svg" viewBox="0 0 495 150">
  <path d="M0,110.875v-14.37502h20.30601v13.62545c0,7.41803,1.72225,11.12453,5.16873,11.12453,3.32318,0,4.98428-3.74987,4.98428-11.24962V27.50008H5.53814V0h46.61156v110.25053c0,4.91711-.35499,9.49928-1.06149,13.74954-.70799,4.25026-1.79981,8.04251-3.27694,11.37472-1.41598,3.08404-3.19988,5.73024-5.35319,7.93759-2.1548,2.20937-4.61487,3.8558-7.38419,4.93728-2.89262,1.16622-6.03085,1.75034-9.41419,1.75034-8.36911,0-14.73804-3.29085-19.10631-9.87457-4.36976-6.58271-6.55339-16.33218-6.55339-29.25043Z" fill="#012030" stroke-width="0"/>
  <path d="M62.7631,121.24996V40.00067h20.7674v76.24945c0,1.75034.30726,3.24949.92327,4.50045.18446.41766.50763.83331.96901,1.24996.46139.41766.96901.70821,1.52288.87467.55386.16747,1.07591.25019,1.56911.25019.49172,0,.9536-.06255,1.38466-.18765.42957-.1251.89145-.26936,1.38466-.43784.55337-.16545,1.01525-.39446,1.38416-.68702.36941-.29156.86112-.64465,1.47714-1.06231.24511-.16646.47581-.3541.69208-.56294.21478-.20681.44548-.43784.69208-.68803V40.00067h20.7674v108.74937h-20.7674c0-.8323.06066-1.6656.18495-2.49992.12231-.8323.30676-1.83206.55337-3.0003.1228-.8323.33759-1.83206.64634-2.99929.30726-1.16622.61452-2.16599.92277-3.0003.18495-.41665.36941-.8323.55386-1.24996.1228-.41665.27693-.79093.46139-1.12486l-.73832-.75058c-1.10723,2.00054-2.23087,3.87497-3.36892,5.62532-1.13905,1.75034-2.32334,3.20913-3.55338,4.37536-1.29218,1.24996-2.56995,2.31227-3.83031,3.18694-1.26185.87467-2.6306,1.51932-4.10774,1.93799-.67766.24918-1.36974.43683-2.07674.56193-.70799.1251-1.4304.18765-2.16872.18765-3.87655,0-7.23105-1.6656-10.06103-4.99983-1.35383-1.58187-2.47747-3.58241-3.36892-6.00061-.89245-2.41517-1.58453-5.04019-2.07674-7.87403-.49321-3.0003-.73832-6.29115-.73832-9.87558Z" fill="#012030" stroke-width="0"/>
  <path d="M143.98616,40.00067l6.55289,55.99892c.24511,1.91882.4763,4.06362.69258,6.43844.21478,2.37482.38333,4.68709.50763,6.93681.12231,2.16801.24511,4.43791.36891,6.81272.1228,2.37482.24511,4.81219.36941,7.3121v6.49998h1.47664c0-1.99953.04624-4.24925.13871-6.74917.09198-2.49992.23069-4.75065.41515-6.75018.1228-1.83206.30726-4.16653.55386-7.00037.24511-2.83183.46139-5.20664.64634-7.12446.12231-1.08249.24511-2.167.36891-3.2505.1228-1.08148.24511-2.12463.36941-3.1254l6.46091-55.99892h20.30601l-15.50669,108.74937h-28.98189l-15.50669-108.74937h20.7679Z" fill="#012030" stroke-width="0"/>
  <path d="M264.43759,94.00007v9.125h-56.11872c.36941,2.49992.96951,4.81219,1.79981,6.93782.8308,2.12463,1.76849,3.93752,2.81556,5.43767,1.16789,1.66762,2.39941,3.04267,3.6916,4.12416,1.29218,1.08451,2.8613,1.91882,4.70734,2.49992.79898.33494,1.64568.58412,2.53862.75058.89095.16747,1.83014.25019,2.81506.25019,2.95328,0,5.66045-.66584,8.12201-2.00054,2.46057-1.33167,4.46074-3.20712,5.99953-5.62431.36941-.5821.707-1.20759,1.01525-1.87544.30726-.66584.58419-1.33167.8308-1.99953h21.13681c-.86212,5.1673-2.12198,9.66775-3.78358,13.49934-1.66159,3.83462-3.50714,7.04274-5.53864,9.62538-2.33875,3.16777-4.96985,5.8745-7.89181,8.12523-2.92345,2.24972-6.10742,3.99906-9.55291,5.24902-1.66159.58412-3.38483,1.04113-5.16873,1.37505-1.78539.33292-3.59962.50039-5.44566.50039-4.73916,0-9.03086-.93722-12.87609-2.81266-3.84622-1.87443-7.27729-4.39453-10.29122-7.5623-6.58521-6.83189-11.1076-15.95689-13.56817-27.37499-1.23153-5.66567-1.84605-11.75001-1.84605-18.24999,0-6.24979.64634-12.24939,1.93852-17.9998s3.10641-10.87534,5.44566-15.37479c2.39991-4.58217,5.21497-8.50052,8.44518-11.75102,3.23071-3.24949,6.78408-5.7494,10.66063-7.49975,3.93721-1.74934,8.03003-2.62501,12.27599-2.62501,4.12166,0,8.15283.93823,12.09153,2.81266,3.93671,1.87544,7.41402,4.48129,10.42944,7.81249,3.13922,3.50069,5.86181,7.49975,8.16974,12.0002,2.30694,4.50045,4.07493,9.58402,5.30695,15.2507,1.23003,5.49921,1.84555,11.293,1.84555,17.37431ZM208.68828,84.37569h35.35082c-.98492-4.41672-2.64651-8.20796-4.98428-11.37573-2.27711-3.08202-4.95395-5.25003-8.03003-6.49998-.80047-.24918-1.60093-.45701-2.39991-.62447-.80047-.16646-1.63077-.25019-2.49189-.25019-3.13823,0-6.15365,1.12486-9.04528,3.37458-1.04707.83431-2.13889,2.00054-3.27694,3.49968-1.13905,1.50116-2.16872,3.37559-3.09199,5.62532-.86262,2.08427-1.53879,4.16854-2.0305,6.2508Z" fill="#012030" stroke-width="0"/>
  <path d="M272.74356,40.00067h20.7674c0,.91805-.06165,1.73017-.18396,2.43737-.1243.70821-.33908,1.64643-.64634,2.81266-.30925,1.24895-.49321,1.99953-.55386,2.24972-.06265.25019-.17004.52056-.32317.81212-.15413.29357-.44747,1.14706-.87703,2.56246-.30825.91805-.67816,1.75034-1.10773,2.49992l1.10773,1.24996c.98343-1.99953,1.95294-3.74987,2.90754-5.25003.9536-1.49914,2.16872-2.95692,3.64635-4.37435,2.46007-2.33245,5.41335-3.8326,8.86082-4.50045,1.59895-.33191,3.4445-.49938,5.53764-.49938h3.59962l-.92277,26.8746h-5.81507c-4.86147,0-8.58439,1.04214-11.16876,3.12439-2.70767,2.25073-4.061,5.33477-4.061,9.2511v69.49928h-20.7674V40.00067Z" fill="#012030" stroke-width="0"/>
  <path d="M321.75502,16.12537c0-3.58241.73882-6.79154,2.21545-9.62538.61452-1.33167,1.4309-2.49992,2.44615-3.49968,1.01525-1.00077,2.07624-1.70696,3.18397-2.12463,1.16838-.50039,2.40041-.75058,3.69209-.75058,1.23003,0,2.43024.23002,3.59962.68803,1.16838.45802,2.27611,1.1864,3.32318,2.18717,1.96786,1.99953,3.32219,4.62454,4.061,7.87504.36891,1.66762.55386,3.41796.55386,5.25003,0,4.58419-1.0779,8.45815-3.23071,11.62491-2.1548,3.16777-4.92312,4.75065-8.30696,4.75065-2.64602,0-4.92312-1.04113-6.83032-3.1254-.98443-1.00077-1.81572-2.1448-2.49189-3.43814-.67816-1.29132-1.23202-2.85301-1.6616-4.68709-.3689-1.58187-.55386-3.29085-.55386-5.12493ZM322.86275,148.75004V40.00067h20.7674v108.74937h-20.7674Z" fill="#012030" stroke-width="0"/>
  <path d="M392.54815,150c-4.67652,0-9.04478-.9806-13.10579-2.93775-4.062-1.95716-7.69343-4.60336-10.89133-7.93759-3.32318-3.3312-6.23072-7.24955-8.72261-11.75001-2.49189-4.49945-4.44682-9.74947-5.86081-15.74907-1.35433-5.50123-2.0305-11.37573-2.0305-17.62552,0-6.00061.67617-11.79137,2.0305-17.37431,1.35234-5.58294,3.26054-10.66651,5.7226-15.2507,2.58436-4.74964,5.58338-8.79107,8.99904-12.1253,3.41466-3.3312,7.06102-5.8745,10.93707-7.62484,2.0305-.91603,4.12166-1.62424,6.27646-2.12463,2.1538-.50039,4.36826-.75058,6.64537-.75058,4.36926,0,8.63013.95941,12.78361,2.87521,4.15348,1.91882,7.89231,4.50045,11.2145,7.74994,3.26153,3.33423,6.16807,7.3121,8.72261,11.93765,2.55255,4.62555,4.50648,9.7303,5.86081,15.31325.61452,2.75011,1.10773,5.58294,1.47664,8.49951.36991,2.91758.55386,5.8745.55386,8.8748,0,4.99983-.56977,10.37495-1.70733,16.12537-1.13955,5.7494-3.18397,11.4181-6.13824,17.00003-2.46106,4.66792-5.41533,8.70834-8.85983,12.12429-3.44748,3.41796-7.13957,6.04298-11.07628,7.87504-2.0305.91805-4.12365,1.62525-6.27646,2.12563-2.1548.49938-4.33843.74957-6.55389.74957ZM392.64062,123.1254c2.0305,0,4.07592-.45701,6.13824-1.37505,2.06132-.91603,3.89097-2.29109,5.4919-4.12516,2.0305-2.16599,3.61453-4.51962,4.75309-7.06292,1.13855-2.54027,1.92311-4.8939,2.35367-7.06191.30726-1.41642.55386-2.89437.73882-4.43791.18396-1.54151.27643-3.1032.27643-4.68709,0-3.2505-.33908-6.31335-1.01525-9.18754-.67717-2.87521-1.60093-5.51939-2.76832-7.93759-1.04707-2.00054-2.36958-3.93752-3.96952-5.81195-1.60093-1.87544-3.53896-3.3534-5.81507-4.43791-2.0305-.91603-4.09282-1.37505-6.18398-1.37505-4.42992,0-8.33878,1.79272-11.72162,5.37512-1.60093,1.66762-3.04575,3.73071-4.33843,6.18724-1.29169,2.45855-2.24628,5.10576-2.8608,7.93759-.30925,1.41743-.55386,2.91758-.73882,4.50045-.18495,1.58389-.27643,3.16777-.27643,4.74964,0,2.58365.27643,5.33376.8303,8.25033.55386,2.91758,1.56911,5.83314,3.04575,8.74971,1.16838,2.33346,2.55255,4.37435,4.15348,6.12469,1.59994,1.75034,3.47631,3.1254,5.63012,4.12516,2.0305.99976,4.12166,1.50015,6.27646,1.50015Z" fill="#012030" stroke-width="0"/>
  <path d="M441.46614,40.00067h20.7674c0,.33292-.06165,1.02095-.18396,2.06208-.1243,1.04314-.27743,1.85526-.46238,2.43737-.2466.91805-.49321,1.83408-.73782,2.75011-.2466.91805-.61551,1.99953-1.10773,3.2505-.18495.49938-.36891.9806-.55386,1.43659-.18495.46003-.40073.93823-.64634,1.4376l1.10773,1.24996c1.16838-2.33245,2.27611-4.22807,3.32318-5.68786,1.04508-1.45677,2.21545-2.89337,3.50714-4.3118,1.16838-1.24996,2.46007-2.33245,3.87705-3.2505,1.41399-.91603,2.79915-1.58187,4.15348-1.99953.67617-.16545,1.36825-.31274,2.07624-.43784.707-.1251,1.4309-.18765,2.16872-.18765,1.84654,0,3.67618.39748,5.4919,1.18842,1.81472.79295,3.39975,1.97935,4.75408,3.56223,2.70667,3.33423,4.49057,7.99913,5.35269,13.99973.18495,1.50015.33809,3.08404.46238,4.74964.12231,1.66863.18396,3.41796.18396,5.25003v81.25029h-20.7674v-76.25046c0-.99876-.06165-1.76951-.18495-2.31227-.1233-.54074-.36891-1.26913-.73782-2.18717-.2466-.50039-.61551-.95638-1.10773-1.37505-.49321-.41665-.92277-.66584-1.29169-.74957-.61651-.16646-1.17037-.25019-1.66159-.25019-.49321,0-.95459.06255-1.38516.18765s-.89195.27138-1.38416.43784c-.55386.16747-1.01525.39547-1.38416.68702-.36991.29256-.86311.64667-1.47664,1.06231-.2466.16747-.47829.35511-.69308.56294-.21578.20782-.44647.43683-.69208.68702v79.49995h-20.7674V40.00067Z" fill="#012030" stroke-width="0"/>
</svg>