<?xml version="1.0" encoding="UTF-8"?>
<svg id="a" data-name="Layer 1" xmlns="http://www.w3.org/2000/svg" viewBox="0 0 495 145">
  <path d="M0,143.45586v-27.52365c3.88214,0,6.90648-.2765,9.07104-.83379,2.16357-.553,3.70771-1.77261,4.63141-3.6481.92222-1.87764,1.49507-4.86556,1.71857-8.96807.2225-4.09822.3345-9.69469.3345-16.78512V0h17.76051v78.60884c0,12.51114-.15957,22.83171-.47771,30.96384-.31913,8.13213-1.01885,14.49166-2.10064,19.07858-1.08327,4.58692-2.81671,7.95852-5.20377,10.11265-2.38756,2.15628-5.66661,3.47663-9.83518,3.96318-4.17005.4887-9.46996.72876-15.89873.72876Z" fill="#012030" stroke-width="0"/>
  <path d="M76.38904,145c-3.8192,0-6.87477-.90108-9.16669-2.70323-2.29142-1.80017-4.02684-4.40615-5.20377-7.81992-1.17891-3.40782-1.95742-7.59167-2.33949-12.54958-.38207-4.95394-.57286-10.58468-.57286-16.89421v-60.04668h16.23273v51.93897c0,5.01944.09515,9.01077.28643,11.97004.19079,2.96323.57286,5.15043,1.14571,6.56357.57286,1.4191,1.43214,2.31819,2.57835,2.70323,1.14571.38703,2.67349.57955,4.58334.57955,2.03622,0,3.67599-.38504,4.91734-1.15909,1.24135-.77207,2.17992-2.02643,2.8172-3.76309.6353-1.73864,1.05007-4.05485,1.24135-6.95258.19079-2.89575.28643-6.2738.28643-10.13613v-51.74446h16.23273v98.46948h-15.46909l-.38207-12.35706h-.95492c-1.08278,3.21927-2.40342,5.85899-3.96242,7.91717-1.56049,2.06017-3.37519,3.57057-5.44263,4.53714-2.06942.96459-4.34498,1.44688-6.82769,1.44688Z" fill="#012030" stroke-width="0"/>
  <path d="M146.0946,143.45586l-17.2833-98.46948h16.90123l10.98139,70.66708h1.05007l10.88575-70.66708h16.51916l-17.2833,98.46948h-21.771Z" fill="#012030" stroke-width="0"/>
  <path d="M229.93225,145c-5.1562,0-9.42189-.54779-12.7951-1.64139-3.37519-1.09161-6.04868-2.86201-8.02097-5.30921-1.97427-2.44323-3.43763-5.6625-4.39256-9.65383-.95492-3.98737-1.57535-8.78451-1.86178-14.3835s-.42964-12.1308-.42964-19.59744c0-9.1378.25323-16.92398.76364-23.36251.50893-6.43456,1.59022-11.68126,3.24635-15.7361,1.65464-4.05386,4.23299-7.04686,7.73455-8.97802,3.50007-1.93017,8.24348-2.89575,14.22774-2.89575,4.7102,0,8.59383.57955,11.64939,1.73765s5.44263,3.02575,7.16169,5.59898c1.71857,2.57621,2.97479,5.85899,3.77163,9.84735.79486,3.99134,1.27257,8.78451,1.43313,14.3835.15659,5.59898.23786,12.13477.23786,19.59744v6.9506h-34.08889c0,4.24737.12686,7.6929.38207,10.33063.25372,2.63972.87415,4.60264,1.86178,5.88876.98614,1.2881,2.51393,2.15743,4.58334,2.60598,2.06793.45252,4.91784.6768,8.54626.6768,1.46336,0,3.1512-.06351,5.06056-.19451,1.90985-.12702,3.85092-.31955,5.8247-.57955,1.97278-.25603,3.8197-.57756,5.53876-.96459v22.20342c-1.46534.77207-3.34249,1.4191-5.63391,1.93116-2.29192.51207-4.71169.89909-7.25733,1.15909-2.54663.25603-5.06056.38504-7.54326.38504ZM237.47552,90.35979v-4.82692c0-4.5034-.12835-8.1097-.38157-10.81293-.25521-2.70323-.73292-4.72966-1.43264-6.08128-.7012-1.35162-1.65613-2.1872-2.86428-2.50972-1.21013-.32054-2.73791-.48329-4.58384-.48329-2.10064,0-3.80434.22626-5.10813.67581-1.30577.45252-2.29192,1.38536-2.96042,2.79949-.6685,1.4191-1.09814,3.54278-1.28893,6.37105-.19079,2.83423-.28643,6.50205-.28643,11.00545h20.81608l-1.90985,3.86233Z" fill="#012030" stroke-width="0"/>
  <path d="M275.66855,143.45586V44.98638h15.46909l.47771,17.37749h.85928c.95443-4.89043,2.24385-8.71901,3.86727-11.48873,1.62342-2.76575,3.564-4.69691,5.8247-5.79151,2.25872-1.09261,4.88414-1.64139,7.87726-1.64139v28.76897c-4.77413,0-8.46697,1.12734-11.07653,3.37805-2.61056,2.25468-4.42526,6.05151-5.44213,11.39247-1.01984,5.34295-1.52828,12.77585-1.52828,22.29868v34.17544h-16.32837Z" fill="#012030" stroke-width="0"/>
  <path d="M330.28709,60.17071v-17.17071h16.80509v17.17071h-16.80509ZM330.38223,143.45586v-68.95387h16.51966v68.95387h-16.51966Z" fill="#012030" stroke-width="0"/>
  <path d="M395.78989,145c-5.02983,0-9.15182-.51604-12.36596-1.54414-3.21513-1.0281-5.77712-2.70323-7.68697-5.01944-1.90985-2.31819-3.29442-5.43623-4.1537-9.36406-.85928-3.92584-1.40042-8.75275-1.62342-14.48075-.223-5.72601-.334-12.51783-.334-20.36951,0-7.84969.111-14.64151.334-20.36951.223-5.727.76414-10.55392,1.62342-14.48174.85928-3.92485,2.24385-7.04686,4.1537-9.36406s4.47184-3.98836,7.68697-5.02043c3.21414-1.0281,7.33612-1.54414,12.36596-1.54414,4.96541,0,9.07055.51604,12.31739,1.54414,3.24684,1.03207,5.80884,2.70323,7.68697,5.02043,1.87714,2.3172,3.24585,5.43921,4.10613,9.36406.85928,3.92782,1.41529,8.75474,1.67099,14.48174.25372,5.72799.38157,12.51981.38157,20.36951,0,7.85168-.12785,14.6435-.38157,20.36951-.2557,5.72799-.81171,10.55491-1.67099,14.48075-.86027,3.92782-2.22898,7.04587-4.10613,9.36406-1.87813,2.31621-4.44013,3.99134-7.68697,5.01944s-7.35198,1.54414-12.31739,1.54414ZM395.69375,120.6729c2.48271,0,4.39256-.25603,5.72955-.77207,1.33699-.51405,2.29142-1.64139,2.86428-3.38003.57286-1.73666.92271-4.40615,1.05057-8.01244.12686-3.60232.19128-8.36573.19128-14.28624,0-6.04952-.06442-10.8427-.19128-14.38548-.12785-3.53881-.47771-6.17853-1.05057-7.91519-.57286-1.73864-1.52729-2.863-2.86428-3.37904-1.33699-.51306-3.24684-.77306-5.72955-.77306-2.35584,0-4.20127.26-5.53827.77306-1.33699.51604-2.29142,1.6404-2.86428,3.37904-.57286,1.73666-.93956,4.37638-1.09814,7.91519-.15957,3.54278-.23886,8.33596-.23886,14.38548,0,5.92051.07929,10.68392.23886,14.28624.15858,3.60629.52528,6.27578,1.09814,8.01244.57286,1.73864,1.52729,2.86598,2.86428,3.38003,1.33699.51604,3.18242.77207,5.53827.77207Z" fill="#012030" stroke-width="0"/>
  <path d="M444.58274,143.45586V44.98638h15.56424l.28643,12.35706h1.05057c1.08228-3.3453,2.40243-6.01578,3.96242-8.01244,1.55999-1.99368,3.3737-3.4753,5.44312-4.44088,2.06743-.96558,4.34498-1.44788,6.82769-1.44788,3.75528,0,6.77912.90207,9.07055,2.70323,2.29241,1.80414,4.02585,4.41012,5.20427,7.81893,1.17743,3.41278,1.97229,7.56389,2.38756,12.45432.41329,4.89341.62043,10.5559.62043,16.99047v60.04668h-16.32837v-51.93698c0-5.02142-.08028-9.00879-.23886-11.97202-.15957-2.95926-.54114-5.14646-1.14571-6.56357-.60556-1.41513-1.46485-2.31819-2.57785-2.70323-1.11499-.38603-2.62642-.57955-4.53627-.57955-2.10014,0-3.78798.38504-5.06056,1.15909-1.27356.77207-2.19628,2.02643-2.76913,3.76507-.57286,1.73666-.95443,4.02309-1.14571,6.85335-.19128,2.83224-.28643,6.24601-.28643,10.23338v51.74446h-16.32837Z" fill="#012030" stroke-width="0"/>
</svg>