<?xml version="1.0" encoding="UTF-8"?>
<svg id="a" data-name="Layer 1" xmlns="http://www.w3.org/2000/svg" viewBox="0 0 500 500">
  <g>
    <path d="M7.02539,323.93652v-13.91504h19.94238v13.18945c0,7.18066,1.69141,10.76855,5.07617,10.76855,3.26367,0,4.89502-3.62988,4.89502-10.88965v-79.86035H12.46436v-26.62012h45.77686v106.72266c0,4.75977-.34863,9.19531-1.04248,13.30957-.69531,4.11426-1.76758,7.78516-3.21826,11.01074-1.39062,2.98535-3.14258,5.54688-5.25732,7.68359-2.11621,2.13867-4.53223,3.73242-7.25195,4.7793-2.84082,1.12891-5.92285,1.69434-9.24561,1.69434-8.21924,0-14.47412-3.18555-18.76416-9.55859-4.2915-6.37207-6.43604-15.80957-6.43604-28.31445Z" fill="#012030" stroke-width="0"/>
    <path d="M68.66455,333.97949v-78.64941h20.39551v73.80957c0,1.69434.30176,3.14551.90674,4.35645.18115.4043.49854.80664.95166,1.20996.45312.4043.95166.68555,1.49561.84668.54395.16211,1.05664.24219,1.54102.24219.48291,0,.93652-.06055,1.35986-.18164.42188-.12109.87549-.26074,1.35986-.42383.54346-.16016.99707-.38184,1.35938-.66504.36279-.28223.8457-.62402,1.45068-1.02832.24072-.16113.46729-.34277.67969-.54492.21094-.2002.4375-.42383.67969-.66602v-76.95508h20.39551v105.26953h-20.39551c0-.80566.05957-1.6123.18164-2.41992.12012-.80566.30127-1.77344.54346-2.9043.12061-.80566.33154-1.77344.63477-2.90332.30176-1.12891.60352-2.09668.90625-2.9043.18164-.40332.36279-.80566.54395-1.20996.12061-.40332.27197-.76562.45312-1.08887l-.7251-.72656c-1.0874,1.93652-2.19092,3.75098-3.30859,5.44531-1.11865,1.69434-2.28174,3.10645-3.48975,4.23535-1.26904,1.20996-2.52393,2.23828-3.76172,3.08496-1.23926.84668-2.5835,1.4707-4.03418,1.87598-.66553.24121-1.34521.42285-2.03955.54395-.69531.12109-1.40479.18164-2.12988.18164-3.80713,0-7.10156-1.6123-9.88086-4.83984-1.32959-1.53125-2.43311-3.46777-3.30859-5.80859-.87646-2.33789-1.55615-4.87891-2.03955-7.62207-.48438-2.9043-.7251-6.08984-.7251-9.55957Z" fill="#012030" stroke-width="0"/>
    <path d="M148.43311,255.33008l6.43555,54.20703c.24072,1.85742.46777,3.93359.68018,6.23242.21094,2.29883.37646,4.53711.49854,6.71484.12012,2.09863.24072,4.2959.3623,6.59473.12061,2.29883.24072,4.6582.36279,7.07812v6.29199h1.4502c0-1.93555.04541-4.11328.13623-6.5332.09033-2.41992.22656-4.59863.40771-6.53418.12061-1.77344.30176-4.0332.54395-6.77637.24072-2.74121.45312-5.04004.63477-6.89648.12012-1.04785.24072-2.09766.3623-3.14648.12061-1.04688.24072-2.05664.36279-3.02539l6.34521-54.20703h19.94238l-15.229,105.26953h-28.46289l-15.229-105.26953h20.396Z" fill="#012030" stroke-width="0"/>
    <path d="M266.72754,307.60156v8.83301h-55.11377c.36279,2.41992.95215,4.6582,1.76758,6.71582.81592,2.05664,1.73682,3.81152,2.76514,5.26367,1.14697,1.61426,2.35645,2.94531,3.62549,3.99219,1.26904,1.0498,2.81006,1.85742,4.62305,2.41992.78467.32422,1.61621.56543,2.49316.72656.875.16211,1.79736.24219,2.76465.24219,2.90039,0,5.55908-.64453,7.97656-1.93652,2.4165-1.28906,4.38086-3.10449,5.89209-5.44434.36279-.56348.69434-1.16895.99707-1.81543.30176-.64453.57373-1.28906.81592-1.93555h20.7583c-.84668,5.00195-2.08398,9.3584-3.71582,13.06738-1.63184,3.71191-3.44434,6.81738-5.43946,9.31738-2.29687,3.06641-4.88085,5.68652-7.75048,7.86523-2.87109,2.17773-5.99805,3.87109-9.38184,5.08105-1.63184.56543-3.32422,1.00781-5.07617,1.33105-1.75342.32227-3.53516.48438-5.34814.48438-4.6543,0-8.86914-.90723-12.64551-2.72266-3.77734-1.81445-7.14697-4.25391-10.10693-7.32031-6.46729-6.61328-10.90869-15.44629-13.3252-26.49902-1.20947-5.48438-1.81299-11.37402-1.81299-17.66602,0-6.0498.63477-11.85742,1.90381-17.42383s3.05078-10.52734,5.34814-14.88281c2.35693-4.43555,5.12158-8.22852,8.29395-11.375,3.17285-3.14551,6.6626-5.56543,10.46973-7.25977,3.8667-1.69336,7.88623-2.54102,12.05615-2.54102,4.04785,0,8.00684.9082,11.875,2.72266,3.86621,1.81543,7.28125,4.33789,10.24268,7.5625,3.08301,3.38867,5.75684,7.25977,8.02344,11.61621,2.26562,4.35645,4.00195,9.27734,5.21191,14.7627,1.20801,5.32324,1.8125,10.93164,1.8125,16.81836ZM211.97656,298.28516h34.71777c-.96729-4.27539-2.59912-7.94531-4.89502-11.01172-2.23633-2.9834-4.86523-5.08203-7.88623-6.29199-.78613-.24121-1.57227-.44238-2.35693-.60449-.78613-.16113-1.60156-.24219-2.44727-.24219-3.08203,0-6.04346,1.08887-8.8833,3.2666-1.02832.80762-2.10059,1.93652-3.21826,3.3877-1.11865,1.45312-2.12988,3.26758-3.03662,5.44531-.84717,2.01758-1.51123,4.03516-1.99414,6.05078Z" fill="#012030" stroke-width="0"/>
    <path d="M274.88477,255.33008h20.39551c0,.88867-.06055,1.6748-.18066,2.35938-.12207.68555-.33301,1.59375-.63477,2.72266-.30371,1.20898-.48438,1.93555-.54395,2.17773-.06152.24219-.16699.50391-.31738.78613-.15137.28418-.43945,1.11035-.86133,2.48047-.30273.88867-.66602,1.69434-1.08789,2.41992l1.08789,1.20996c.96582-1.93555,1.91797-3.62988,2.85547-5.08203.93652-1.45117,2.12988-2.8623,3.58105-4.23438,2.41602-2.25781,5.31641-3.70996,8.70215-4.35645,1.57031-.32129,3.38281-.4834,5.43848-.4834h3.53516l-.90625,26.01465h-5.71094c-4.77441,0-8.43066,1.00879-10.96875,3.02441-2.65918,2.17871-3.98828,5.16406-3.98828,8.95508v67.27539h-20.39551v-105.26953Z" fill="#012030" stroke-width="0"/>
    <path d="M323.01855,232.21875c0-3.46777.72559-6.57422,2.17578-9.31738.60352-1.28906,1.40527-2.41992,2.40234-3.3877.99707-.96875,2.03906-1.65234,3.12695-2.05664,1.14746-.48438,2.35742-.72656,3.62598-.72656,1.20801,0,2.38672.22266,3.53516.66602,1.14746.44336,2.23535,1.14844,3.26367,2.11719,1.93262,1.93555,3.2627,4.47656,3.98828,7.62305.3623,1.61426.54395,3.30859.54395,5.08203,0,4.4375-1.05859,8.1875-3.17285,11.25293-2.11621,3.06641-4.83496,4.59863-8.1582,4.59863-2.59863,0-4.83496-1.00781-6.70801-3.02539-.9668-.96875-1.7832-2.07617-2.44727-3.32812-.66602-1.25-1.20996-2.76172-1.63184-4.53711-.3623-1.53125-.54394-3.18555-.54394-4.96094ZM324.10645,360.59961v-105.26953h20.39551v105.26953h-20.39551Z" fill="#012030" stroke-width="0"/>
    <path d="M392.54395,361.80957c-4.59277,0-8.88281-.94922-12.87109-2.84375-3.98926-1.89453-7.55566-4.45605-10.69629-7.68359-3.26367-3.22461-6.11914-7.01758-8.56641-11.37402-2.44727-4.35547-4.36719-9.4375-5.75586-15.24512-1.33008-5.3252-1.99414-11.01172-1.99414-17.06152,0-5.80859.66406-11.41406,1.99414-16.81836,1.32812-5.4043,3.20215-10.3252,5.62012-14.7627,2.53808-4.59766,5.4834-8.50977,8.83789-11.7373,3.35352-3.22461,6.93457-5.68652,10.74121-7.38086,1.99414-.88672,4.04785-1.57227,6.16406-2.05664,2.11523-.48438,4.29004-.72656,6.52637-.72656,4.29102,0,8.47559.92871,12.55469,2.7832,4.0791,1.85742,7.75098,4.35645,11.01367,7.50195,3.20312,3.22754,6.05762,7.07812,8.56641,11.55566,2.50684,4.47754,4.42578,9.41895,5.75586,14.82324.60352,2.66211,1.08789,5.4043,1.4502,8.22754.36328,2.82422.54395,5.68652.54395,8.59082,0,4.83984-.55957,10.04297-1.67676,15.60938-1.11914,5.56543-3.12695,11.05273-6.02832,16.45605-2.41699,4.51855-5.31836,8.42969-8.70117,11.73633-3.38574,3.30859-7.01172,5.84961-10.87793,7.62305-1.99414.88867-4.0498,1.57324-6.16406,2.05762-2.11621.4834-4.26074.72559-6.43652.72559ZM392.63477,335.79492c1.99414,0,4.00293-.44238,6.02832-1.33105,2.0244-.88672,3.82129-2.21777,5.39355-3.99316,1.99414-2.09668,3.5498-4.375,4.66797-6.83691,1.11816-2.45898,1.88867-4.7373,2.31152-6.83594.30176-1.37109.54395-2.80176.72559-4.2959.18066-1.49219.27148-3.00391.27148-4.53711,0-3.14648-.33301-6.11133-.99707-8.89355-.66504-2.7832-1.57227-5.34277-2.71875-7.68359-1.02832-1.93652-2.32715-3.81152-3.89844-5.62598-1.57227-1.81543-3.47559-3.24609-5.71094-4.2959-1.99414-.88672-4.01953-1.33105-6.07324-1.33105-4.35059,0-8.18945,1.73535-11.51172,5.20312-1.57227,1.61426-2.99121,3.61133-4.26074,5.98926-1.26855,2.37988-2.20605,4.94238-2.80957,7.68359-.30371,1.37207-.54395,2.82422-.72559,4.35645-.18164,1.5332-.27148,3.06641-.27148,4.59766,0,2.50098.27148,5.16309.81543,7.98633.54395,2.82422,1.54102,5.64648,2.99121,8.46973,1.14746,2.25879,2.50684,4.23438,4.0791,5.92871,1.57129,1.69434,3.41406,3.02539,5.5293,3.99316,1.99414.96777,4.04785,1.45215,6.16406,1.45215Z" fill="#012030" stroke-width="0"/>
    <path d="M440.58594,255.33008h20.39551c0,.32227-.06055.98828-.18066,1.99609-.12207,1.00977-.27246,1.7959-.4541,2.35938-.24219.88867-.48438,1.77539-.72461,2.66211-.24219.88867-.60449,1.93555-1.08789,3.14648-.18164.4834-.3623.94922-.54395,1.39062-.18164.44531-.39355.9082-.63477,1.3916l1.08789,1.20996c1.14746-2.25781,2.23535-4.09277,3.26367-5.50586,1.02637-1.41016,2.17578-2.80078,3.44434-4.17383,1.14746-1.20996,2.41602-2.25781,3.80762-3.14648,1.38867-.88672,2.74902-1.53125,4.0791-1.93555.66406-.16016,1.34375-.30273,2.03906-.42383.69434-.12109,1.40527-.18164,2.12988-.18164,1.81348,0,3.61035.38477,5.39355,1.15039,1.78223.76758,3.33887,1.91602,4.66895,3.44824,2.6582,3.22754,4.41016,7.74316,5.25684,13.55176.18164,1.45215.33203,2.98535.4541,4.59766.12012,1.61523.18066,3.30859.18066,5.08203v78.65039h-20.39551v-73.81055c0-.9668-.06055-1.71289-.18164-2.23828-.12109-.52344-.3623-1.22852-.72461-2.11719-.24219-.48438-.60449-.92578-1.08789-1.33105-.48438-.40332-.90625-.64453-1.26855-.72559-.60547-.16113-1.14941-.24219-1.63184-.24219-.48438,0-.9375.06055-1.36035.18164s-.87598.2627-1.35938.42383c-.54395.16211-.99707.38281-1.35938.66504-.36328.2832-.84766.62598-1.4502,1.02832-.24219.16211-.46973.34375-.68066.54492-.21191.20117-.43848.42285-.67969.66504v76.95605h-20.39551v-105.26953Z" fill="#012030" stroke-width="0"/>
  </g>
  <g>
    <path d="M339.73939,119.5c0,49.66667-40.28509,90-90,90s-90-40.33333-90-90S200.02449,29.5,249.73939,29.5s90,40.33333,90,90Z" fill="#9aeba3" stroke-width="0"/>
    <path d="M250.0519,38.46299l23.01776,58.04481,58.04479,23.01776-60.42161,20.51582-20.64093,60.42161-19.26486-64.29961-61.6726-16.63782,59.17067-21.89189,21.76679-59.17067Z" fill="#fff" stroke-width="0"/>
  </g>
</svg>